<svg data-v-21d1db44="" xmlns="http://www.w3.org/2000/svg" data-name="Capa 1" viewBox="0 0 792 612">
    <path
        d="M741.68 234.61c1.35-4.03 1.85-8.24 1.85-12.61 0-73.62-174.81-111.95-347.78-111.95S48.14 148.38 48.14 222.01c0 4.37.84 8.57 2.19 12.61h-2.19v209.44c0 31.93 25.89 57.82 57.82 57.82V286.39c1.51.84 2.86 1.68 4.54 2.35 6.73 2.91 14.06 5.82 21.76 8.74 26.21 9.91 43.45 35.19 43.45 63.21v23.03c.02.06 0 .11.02.17v-.08 3.45c-.84 13.28-31.1 23.87-44.54 23.87 13.45 0 43.7 10.42 44.54 24.04v66.73h33.54v.06h113.14v-.06h38.73V333.31c1.01 0 2.02.17 2.69.17 10.59.17 21.35.5 31.94.5 9.75 0 18.49 3.87 24.88 10.25 6.39 6.39 10.25 15.13 10.25 24.71v126.57c0 3.53 2.86 6.39 6.39 6.39h45.05c3.53 0 6.39-2.86 6.39-6.39V373.98c0-24.71 18.49-45.55 43.2-48.58 9.92-1.18 19.5-2.52 26.56-3.7v180.19h57.82v-44.62l.03.16v-10.35c3.47-15.22 16.77-26.58 32.76-27.16.58.19 1.16.19 1.74.19s1.16 0 1.73-.19c17.65.77 31.85 14.34 33.49 31.76v50.21c31.93 0 57.82-25.89 57.82-57.82V234.63h-2.19Zm-631.18 11.6c-1.68-1.01-3.03-2.02-4.54-2.86l-12.27-8.74c-4.71-4.37-7.23-8.91-7.23-12.61 0-25.05 108.59-73.12 308.28-73.29 200.53.17 310.3 48.24 310.3 73.29 0 3.7-2.52 8.24-7.4 12.61l-11.6 8.4c-12.94 8.24-32.11 16.47-57.82 24.04.17-1.01.17-2.19.17-3.19 0-45.05-116.99-68.75-232.3-68.75s-232.47 23.7-232.47 68.75c0 1.18 0 2.19.34 3.36-22.69-6.56-40.68-13.78-53.45-21.01Zm347.61 74.8v-.84c0-3.03-.67-6.22-1.68-8.91-3.53-9.58-12.77-16.47-23.87-16.47h-1.68c-11.77.34-23.87.5-36.48.5-10.25 0-20.51-.17-30.59-.34-20.17-.67-39.33-1.51-57.49-3.03-25.21-2.02-48.24-4.87-69.09-8.24-17.82-3.03-33.79-6.22-48.41-9.75-3.87-3.53-6.05-6.72-6.05-10.09 0-20.17 83.2-49.42 213.31-49.42s213.14 29.25 213.14 49.42c0 3.19-2.02 6.56-5.88 9.92-13.62 3.19-28.58 6.39-44.88 9.08a965 965 0 0 1-69.76 8.57c-1.34.17-2.69.17-4.04.5-.34-.34-.84-.34-1.18-.34-1.68 0-3.36.34-5.21.67 0 0-.17 0-.34.17-9.41 1.85-16.98 9.25-19.16 18.66-.5 2.02-.67 3.87-.67 6.05 0 1.18 0 2.52.34 3.7q-.17.17-.34.17ZM268.43 497.32c-19.27 0-34.88-15.61-34.88-34.89v-104.3c0-19.18 16.76-34.04 35.8-31.74l9.99 1.21c13.68 1.65 23.97 13.26 23.97 27.03v109.71c-.86 18.42-16.04 32.97-34.87 32.97Zm347.85-101.08V370.1c-.17-.17 0-.34 0-.34.17-34.29 21.85-65.05 53.96-76.99 6.22-2.18 11.77-4.37 15.8-6.39v109.85h-69.76Z"
        style="fill: rgb(88, 53, 140); --darkreader-inline-fill: var(--darkreader-text-58358c, #9a78cc);"
        data-darkreader-inline-fill=""></path>
</svg>